<svg id="Layer_1" data-name="Layer 1" xmlns="http://www.w3.org/2000/svg" viewBox="0 0 272 272">
	<path d="M203.11,68.24c-.67-1.37.26-3.19,1.52-4.37,1.64-1.53,2.58-4.6,1.73-5.4-6.06-5.67-2.93-11.46-1-17.4.55-1.66,1.41-4.74-1.83-1.24-.89-4.49-5.48.8-7.44-3.07a46.48,46.48,0,0,0-8.81-11.61c-4.71-4.64-11.45-7-18.19-8.22-2.11-.38-5.54,1.95-4-3.3.49-1.67-2.09-2.14-3.72-1.14s-3.49,1.6-5.23.94c-8.35-3.18-13.29,1.66-17.83,7.4-2.83,3.59-6.47,3.65-10,1.2s-7.64-5.67-12.65-2.11c-5.83,4.15-6.42,3.92-10.2-2.57-.65-1.13-1.56-2-3-1.48-.71.24-1.38.41-1.13,1.65.61,3,.5,2.76-2.43,2.61-7.5-.39-15.37-3.23-22,3a6,6,0,0,1-3.43,1.15c-5,.49-6,3.76-6,8,0,3.55-7.11,12.35-10.52,12.27-3.84-.11-2.19,1.27-1.76,3.14,1.48,6.49,5.1,13,.16,19.61-.41.56-1,1.74-.12,2.11,7.2,2.92,6.17,9.46,6.84,15.24.36,3.32,4.3,5.55,7,3.77,2.41-1.56,2.87-4.39,3.47-6.91C73.9,75.79,75.11,70,77.91,64.74c3.49-6.57,8.59-9.3,15.91-8.41a87,87,0,0,0,19.76.09c2.25-.24,3.6-3.19,6.11-2,8.45,4.21,17.93,2.15,26.69,4.49,8.4,2.25,18.26,1.75,21.81,12.5,1.5,4.55,7.66,5.59,8.36,11.55,1.61-6.58,5.4-4.43,9-3.33,3.43,1.06,4.6,3.79,5.26,6.86.63,2.87,2.57,4.33,5.19,4.19s3.17-3.3,2.79-4.69c-2.36-8.54,4.42-12.09,9-17.36C206,67.65,204,70.16,203.11,68.24ZM60.64,50.35c-.35-.46-.72-.91-1.08-1.38a16.45,16.45,0,0,1,8.72-8.56c.34.43.67.87,1,1.3Zm5.62,2.27c-1.22.5-2.56,1-3.49.12-1.14-1,.4-1.89,1.24-2.51,3.49-2.61,6.82-5.5,12-6C73.12,47.32,70.79,50.74,66.26,52.62ZM180.82,71.07c-.39,1-1.57.78-2.48.71-2-.16-4.15-1-5.07-2.74-3.12-6.09-7.48-10.64-14.09-13,5.94.82,11.47,2.17,14.84,8.06,1.28,2.24,3.83,2.86,5.56,4.52C180.3,69.29,181.21,70.05,180.82,71.07Zm.59-5.77c-.27.64-1,.52-1.52.51a3.24,3.24,0,0,1-3-1.49,13,13,0,0,0-8.11-7.43c3.56.31,6.86.94,8.73,4.41.7,1.31,2.22,1.6,3.21,2.55C181.15,64.24,181.67,64.67,181.41,65.3Z" />
	<path d="M155.82,189.48c-3.64-.7-6.28-2.86-9.34-4-2.71-1-4.2-2.93-4.18-5.37,0-4.79,2.23-.07,3.24-.56,1.3-.63.37-1.76.25-2.63-.28-2.21,1.2-2.58,2.79-3.26,2-.85,3.09-.26,4,1.41,2.14,4,5.62,5.31,10,5.84,12.11,1.47,15.81,6.88,15.68,19a127,127,0,0,1-7.53,40.88c-2.48,7.05-6.6,13.87-13.85,17.79-1.69.92-3.44,1.73-5.19,1.3-7-1.73-14,.51-20.9-.28-6-.69-8.9-6.5-13.54-9.53-6.8-4.43-6.6-13.16-11.4-18.88-2.82-3.37-4.9-6.57-2.38-11.75a16.55,16.55,0,0,0-.15-14.28c-5.43-10.3.91-15.56,8.46-19.94a21.75,21.75,0,0,1,6.23-2.4,12.74,12.74,0,0,0,8.67-6.11c2.21-3.6,4.51-6.17,7.73-.58,1.31,2.28,6.95.92,5.66,5.53-.84,3-4.22,4.2-6.61,6s-3.29,3.82.17,5.45C138.34,195.32,150.84,193.43,155.82,189.48Zm-15.23,45.91c7.53-.17,14-.65,17-8.19.41-1.07,1.77-1.76,2.27-2.82,3.28-6.94,9.44-12.14,11.84-19.58,1.64-5.09-2.66-11.27-7.64-10.16-7.6,1.69-15.17.17-22.77.91a117.69,117.69,0,0,1-18.11.83c-4.06-.23-8.66-2.2-10.76,2.51-1.82,4.1-6,9.25,1,13.07,1.18.65.61,2.27,1,3.34A30.93,30.93,0,0,0,140.59,235.39Z" />
	<path d="M189.63,122.83H173.41c.7-.78,2.57.39,3.37-1.58-3.91-2-7.75-1-11.31.62s-7.4,2.07-11,3.28a4.13,4.13,0,0,1-5.21-1.91c-1.23-1.89-.35-3.53,1-4.88s3-3.76,4.55-3.83c9.22-.36,18.37-3.32,27.69-.75C187.08,115,187,119.39,189.63,122.83Z" />
	<path d="M106.05,123.52c-5.09,0-10.17,0-15.26,0-1.33,0-3.21.56-3.78-1.12-.71-2.08,1.47-2.67,2.67-3.53,4.19-3,9.41-2,14.09-3a35.73,35.73,0,0,1,16.89.57c2.69.75,5.43,2.5,5.1,5.27s-3.65,1.68-5.67,1.76c-4.68.19-9.36.06-14,.06Z" />
	<path d="M131.62,128.31c4.15-1.6,8.6-.68,12.84-1.91,1.73-.51,3,.84,3.13,2.83.27,3.28.61,6.57,1,10.32-3.7-3.19-.85-8.84-5-10.9C139.79,126.8,135.67,128.59,131.62,128.31Z" />
	<path d="M192.82,123.14c6.51-1.78,8.49.26,7.76,5.35-.18,1.27-.43,2.4-1.93,2.55-1.72.17-1.88-1.09-1.9-2.33C196.7,126.39,195.94,124.47,192.82,123.14Z" />
	<path d="M84.72,124.3c-8.22-1.77-10.71.27-9.79,5.36.23,1.27.54,2.4,2.43,2.55,2.17.17,2.37-1.09,2.4-2.33C79.82,127.56,80.78,125.63,84.72,124.3Z" />
	<path d="M145.76,210.51a6.46,6.46,0,0,1-5.52,5.5c-2.67.47-3.82-2.14-4.34-4.16-.72-2.77,1.81-2.69,3.49-2.69C141.59,209.14,144.1,208.57,145.76,210.51Z" />
	<path d="M118,131.57v.06c0,1.09-1.53,2-3.42,2s-3.22-.79-3.4-1.78c-3.7-.17-7.45-.28-11.13,1.1,3.81-4.11,3.82-4.06,15.1-5.46,2-.24,4.75-2,5.17.82C120.5,129.85,119.6,131,118,131.57Z" />
	<path d="M177.15,131.64a13.45,13.45,0,0,0-5.08-1.16,3.07,3.07,0,0,1-2.85,1.5,3.17,3.17,0,0,1-2.76-1.34c-.55,0-1.09.06-1.63.07-2.85.06-4.67-1.36-4.37-3.69.34-2.8,2.59-1.08,4.26-.83C174,127.59,174,127.55,177.15,131.64Z" />
</svg>
